<?xml version="1.0" encoding="utf-8"?>
<svg xmlns="http://www.w3.org/2000/svg" viewBox="0 0 500 500">
  <g transform="matrix(0.096227, 0, 0, -0.095601, 15.921981, 494.603798)" fill="#000000" stroke="none" style="">
    <path d="M4300 5096 c-248 -106 -588 -270 -612 -296 -33 -35 -50 -92 -42 -140 l6 -35 -151 -69 c-83 -38 -151 -71 -151 -73 0 -2 24 -32 53 -66 163 -193 312 -486 377 -744 l10 -42 132 60 131 60 31 -34 c36 -39 94 -62 140 -54 36 6 617 270 659 299 38 27 57 68 57 124 0 40 -31 115 -206 498 -114 248 -215 463 -225 477 -21 30 -85 59 -127 59 -15 -1 -52 -11 -82 -24z" style="stroke: rgb(0, 0, 0); fill: rgb(255, 255, 255); stroke-width: 104.26px;"/>
    <path d="M1765 4794 c-706 -76 -1279 -598 -1415 -1291 -15 -73 -24 -165 -27 -285 l-6 -178 1603 0 1603 0 -6 183 c-11 309 -78 552 -219 787 -240 400 -620 669 -1073 760 -98 20 -368 34 -460 24z" style="stroke: rgb(0, 0, 0); fill: rgb(255, 255, 255); stroke-width: 104.26px;"/>
    <path d="M110 2709 c-14 -6 -36 -20 -48 -32 -49 -45 -52 -63 -52 -280 0 -195 1 -205 23 -237 12 -18 35 -43 50 -54 l28 -21 1809 0 1809 0 28 21 c15 11 38 36 51 54 21 32 22 42 22 240 0 198 -1 208 -22 240 -13 18 -36 43 -51 54 l-28 21 -1797 2 c-1180 1 -1806 -2 -1822 -8z" style="stroke: rgb(0, 0, 0); fill: rgb(255, 255, 255); stroke-width: 104.26px;"/>
    <path d="M322 998 l3 -763 34 -63 c38 -70 69 -100 145 -140 l51 -27 362 -3 362 -3 3 510 c3 497 4 510 24 537 11 15 33 37 48 48 27 21 38 21 565 21 l538 0 37 -29 c67 -51 66 -41 66 -591 l0 -496 363 3 362 3 52 27 c66 35 116 85 151 151 l27 52 3 763 3 762 -1601 0 -1601 0 3 -762z" style="stroke: rgb(0, 0, 0); fill: rgb(255, 255, 255); stroke-width: 104.26px;"/>
    <path d="M1600 400 l0 -400 320 0 320 0 0 400 0 400 -320 0 -320 0 0 -400z" style="stroke: rgb(0, 0, 0); fill: rgb(255, 255, 255); stroke-width: 104.26px;"/>
  </g>
</svg>