<?xml version="1.0" encoding="utf-8"?>
<svg xmlns="http://www.w3.org/2000/svg" viewBox="0 0 500 500">
  <g transform="matrix(0.094986, 0, 0, -0.095123, 9.119725, 494.773292)" fill="#000000" stroke="none" style="">
    <path d="M3960 5113 c-8 -3 -150 -84 -315 -179 -273 -157 -303 -177 -324 -215 -18 -31 -22 -51 -19 -82 4 -32 118 -237 493 -887 268 -465 497 -856 509 -868 11 -13 34 -31 50 -39 60 -31 95 -17 418 169 264 153 306 180 326 214 46 79 62 47 -473 974 -268 465 -497 856 -509 869 -36 41 -109 61 -156 44z" style="fill: rgb(255, 255, 255); stroke-width: 105.203px; stroke: rgb(0, 0, 0);"/>
    <path d="M1805 3477 c-863 -609 -1287 -913 -1302 -936 -16 -23 -23 -49 -23 -80 0 -42 22 -85 251 -481 138 -239 259 -443 268 -454 29 -33 72 -49 120 -43 31 3 154 54 376 157 182 83 331 153 333 155 1 1 -7 36 -18 76 -47 162 -35 367 29 520 139 331 509 532 857 466 215 -41 412 -172 518 -345 l38 -60 111 52 c62 29 228 106 370 171 196 90 257 123 254 134 -3 12 -891 1558 -901 1568 -1 1 -577 -404 -1281 -900z" style="fill: rgb(255, 255, 255); stroke: rgb(0, 0, 0); stroke-width: 105.203px;"/>
    <path d="M2443 2555 c-177 -48 -317 -195 -354 -372 -15 -74 -7 -182 19 -256 45 -126 154 -240 279 -287 73 -28 203 -38 282 -20 310 69 468 428 310 706 -103 183 -337 282 -536 229z" style="fill: rgb(255, 255, 255); stroke-width: 105.203px; stroke: rgb(0, 0, 0);"/>
    <path d="M140 2170 c-47 -27 -95 -62 -107 -77 -29 -36 -38 -86 -24 -131 6 -21 87 -167 179 -327 192 -331 200 -340 292 -332 42 3 74 15 138 52 45 26 84 51 87 55 7 11 -453 805 -468 807 -6 1 -50 -20 -97 -47z" style="fill: rgb(255, 255, 255); stroke: rgb(0, 0, 0); stroke-width: 105.203px;"/>
    <path d="M1847 822 c-157 -421 -237 -650 -237 -675 0 -131 162 -195 252 -100 19 20 90 198 257 643 126 338 231 621 233 628 2 7 -29 25 -78 45 -45 18 -104 48 -131 65 -27 18 -52 32 -54 32 -2 0 -111 -287 -242 -638z" style="fill: rgb(255, 255, 255); stroke-width: 105.203px; stroke: rgb(0, 0, 0);"/>
    <path d="M2961 1420 c-54 -33 -102 -55 -188 -85 -9 -3 -10 -11 -3 -27 5 -13 111 -295 236 -628 163 -437 233 -613 252 -633 90 -95 252 -31 252 100 0 25 -80 254 -237 675 -131 351 -240 638 -243 637 -3 0 -34 -18 -69 -39z" style="fill: rgb(255, 255, 255); stroke-width: 105.203px; stroke: rgb(0, 0, 0);"/>
  </g>
</svg>